<svg width="87" height="91" viewBox="0 0 87 91" fill="none" xmlns="http://www.w3.org/2000/svg">
<path d="M36.2042 42.6548C36.2788 42.6457 36.3536 42.6384 36.4286 42.6328C37.1916 42.5777 39.0775 42.7352 39.5709 43.3231C39.7788 43.5707 39.7265 43.7378 39.6996 44.0339C38.959 43.9601 38.0545 43.6782 37.3451 43.4318C36.8627 43.2646 36.4369 43.1315 36.2042 42.6548Z" fill="#FCBE46"/>
<path d="M43.6102 57.0015C43.856 57.029 43.8901 57.0092 44.1021 57.1604L44.1233 57.4257C43.7174 58.4431 42.5808 59.3589 41.8175 60.1269C41.5685 60.134 41.5399 60.1094 41.3241 59.9774L41.3074 59.7311C41.7546 58.6789 42.7533 57.7297 43.6102 57.0015Z" fill="#FCBE46"/>
<path d="M39.1655 50.8696C39.4175 50.8237 39.5648 50.7786 39.81 50.8801C39.9274 51.1322 39.955 51.1439 39.8918 51.4108C39.2857 52.0794 37.648 52.2277 36.789 52.402C36.764 52.4101 36.7402 52.4236 36.7141 52.4259C36.392 52.4576 36.339 52.4027 36.0938 52.2149L36.0787 52.0369C36.6503 51.3689 38.3209 51.1164 39.1655 50.8696Z" fill="#FCBE46"/>
<path d="M57.7812 56.7844C58.5279 57.2002 60.0189 58.6398 60.2645 59.5078C60.3391 59.7714 60.2029 59.9618 60.078 60.178C59.9102 60.0908 59.9112 60.0957 59.7455 59.9898C59.0872 59.5691 57.5981 58.0397 57.4747 57.2371C57.4476 57.06 57.6663 56.9085 57.7812 56.7844Z" fill="#FCBE46"/>
<path d="M61.9433 50.8035C62.7841 51.0088 65.0104 51.3408 65.4811 52.0353C65.4675 52.3173 65.4254 52.3267 65.238 52.5431C64.2796 52.4117 62.3386 52.2337 61.738 51.4612C61.7085 51.1303 61.7782 51.0808 61.9433 50.8035Z" fill="#FCBE46"/>
<path d="M64.7412 42.4341C64.8722 42.4386 64.9533 42.4379 65.0879 42.4604C65.3219 42.4995 65.451 42.5509 65.5779 42.7567C65.5631 42.7887 65.551 42.8225 65.5334 42.853C65.1358 43.5409 63.1164 43.8945 62.3494 44.0908C62.1478 44.0959 62.0224 44.0474 61.8325 43.9857C61.7165 43.7231 61.7218 43.7246 61.7983 43.4467C62.3888 42.8479 63.9277 42.6112 64.7412 42.4341Z" fill="#FCBE46"/>
<path d="M41.5568 34.3599C41.6531 34.3983 41.6662 34.4005 41.7696 34.4594C42.3701 34.8014 44.107 36.7737 44.203 37.4415C44.2492 37.7615 44.2072 37.8177 44.0338 38.0643C43.2965 37.5537 41.5335 35.9905 41.3513 35.0794C41.2798 34.7226 41.3729 34.6536 41.5568 34.3599Z" fill="#FCBE46"/>
<path d="M50.5984 31.6724L50.9693 31.7495C51.1596 31.8954 51.2586 32.0223 51.319 32.2607C51.5413 33.1407 51.5403 34.9578 51.1178 35.7414L50.6944 35.6707C50.5515 35.5434 50.4822 35.455 50.414 35.2704C50.1022 34.4244 50.2357 32.4743 50.5984 31.6724Z" fill="#FCBE46"/>
<path d="M59.6868 34.6682C59.8544 34.6834 60.0081 34.7263 60.1715 34.7667C60.2603 34.8872 60.3589 34.9551 60.3466 35.1158C60.2809 35.969 58.6599 37.395 58.0567 38.0312C57.76 38.0156 57.6811 38.0549 57.4639 37.8569C57.4387 37.7285 57.4283 37.7193 57.4465 37.5693C57.554 36.6881 59.0535 35.2657 59.6868 34.6682Z" fill="#FCBE46"/>
<path d="M50.6024 58.9043C50.7713 58.9415 50.9165 58.9955 51.0776 59.057C51.2098 59.2243 51.2798 59.3435 51.3336 59.555C51.5759 60.5031 51.5632 62.5585 51.0483 63.3746L50.7427 63.2863C50.6312 63.1729 50.5475 63.0691 50.4956 62.9153C50.1734 61.9618 50.1497 59.7966 50.6024 58.9043Z" fill="#FCBE46"/>
<path d="M50.556 37.3288C50.6236 37.3245 50.6912 37.3183 50.759 37.3158C53.0858 37.2275 55.7709 38.3196 57.4563 39.9193C57.5807 40.0354 57.7023 40.1545 57.8208 40.2767C57.9394 40.3989 58.0549 40.524 58.1673 40.6519C58.2798 40.7799 58.3891 40.9106 58.4952 41.0439C58.6013 41.1772 58.7041 41.3131 58.8036 41.4517C58.9031 41.5901 58.9991 41.7309 59.0916 41.8741C59.1842 42.0173 59.2732 42.1628 59.3587 42.3105C59.444 42.4582 59.5258 42.6079 59.6039 42.7596C59.682 42.9112 59.7564 43.0648 59.8271 43.2202C59.8977 43.3757 59.9645 43.5328 60.0274 43.6914C60.0904 43.8501 60.1494 44.0103 60.2046 44.1721C60.2597 44.3338 60.3107 44.4967 60.3578 44.6609C60.405 44.825 60.4481 44.9902 60.4871 45.1565C60.5262 45.3229 60.5612 45.4902 60.592 45.6584C60.6229 45.8264 60.6497 45.9951 60.6723 46.1645C60.6949 46.3339 60.7134 46.5038 60.7276 46.6742C60.742 46.8445 60.7522 47.0151 60.7582 47.1858C60.8374 50.1312 59.9163 52.6046 57.8855 54.7348C57.7795 54.8476 57.6708 54.9577 57.5595 55.065C57.4481 55.1724 57.3342 55.277 57.2176 55.3787C57.1012 55.4805 56.9824 55.5793 56.8611 55.675C56.7398 55.7708 56.6161 55.8635 56.4902 55.9531C56.3643 56.0428 56.2364 56.1294 56.1064 56.2127C55.9763 56.2959 55.8442 56.3758 55.7101 56.4526C55.5761 56.5292 55.4403 56.6026 55.3027 56.6726C55.1651 56.7426 55.0258 56.809 54.885 56.872C54.7441 56.935 54.6018 56.9945 54.4581 57.0503C54.3143 57.1063 54.1692 57.1587 54.0228 57.2074C53.8765 57.2561 53.7291 57.3011 53.5804 57.3424C53.4319 57.3838 53.2825 57.4215 53.1322 57.4554C52.9817 57.4893 52.8305 57.5195 52.6786 57.546C52.5269 57.5723 52.3745 57.5949 52.2215 57.6137C52.0684 57.6325 51.9151 57.6475 51.7613 57.6588C51.6076 57.6699 51.4537 57.6772 51.2997 57.6808C49.0052 57.7329 46.7489 57.1817 44.9259 55.7235C42.6638 53.9138 41.205 51.3701 40.8837 48.4734C40.8659 48.3051 40.8523 48.1364 40.8428 47.9675C40.8335 47.7985 40.8283 47.6293 40.8271 47.4601C40.826 47.2908 40.829 47.1216 40.8362 46.9525C40.8436 46.7835 40.855 46.6146 40.8706 46.446C40.8863 46.2775 40.9061 46.1096 40.9299 45.9421C40.9538 45.7744 40.9818 45.6076 41.0139 45.4415C41.0461 45.2753 41.0823 45.11 41.1226 44.9457C41.1629 44.7815 41.2071 44.6183 41.2555 44.4562C41.3039 44.294 41.3563 44.1332 41.4125 43.9739C41.4689 43.8143 41.5291 43.6564 41.5931 43.5C41.6573 43.3435 41.7251 43.1888 41.7968 43.0358C41.8686 42.8827 41.9441 42.7315 42.0233 42.5823C42.1025 42.433 42.1853 42.2858 42.2717 42.1407C42.3582 41.9955 42.4482 41.8527 42.5418 41.7121C42.6353 41.5716 42.7322 41.4334 42.8326 41.2977C42.9329 41.1619 43.0365 41.0289 43.1435 40.8984C45.0773 38.5172 47.5941 37.6136 50.556 37.3288Z" fill="#FCBE46"/>
<path d="M13.261 29.0029C14.1381 29.1365 15.0479 28.9717 15.933 29.0284C18.5018 30.0961 20.3071 31.0683 21.4317 33.7729C21.5313 34.0145 21.6266 34.2577 21.7176 34.5027C23.4144 34.2765 25.1028 34.6898 26.4692 35.7495C27.364 36.4436 28.0229 37.3148 28.5948 38.2872C29.2113 40.1623 29.1339 42.1294 28.2531 43.9096C28.0827 44.2499 27.9073 44.5874 27.7268 44.9222C26.7244 45.8945 25.7715 46.6898 24.386 47.0554C22.6207 47.5211 20.3828 47.2906 18.559 47.2972C14.8428 47.3106 11.1145 47.2367 7.40099 47.341C5.42483 47.3183 3.46264 46.8772 1.96356 45.5027C0.742764 44.3832 0.101426 42.8344 0.0111381 41.1898C-0.0806337 39.5167 0.391577 37.6376 1.54392 36.3904C2.9472 34.8712 5.26036 34.5491 7.21066 34.5057C8.70911 31.5819 10.1016 30.0213 13.261 29.0029Z" fill="#FCBE46"/>
<path d="M16.5634 10.7995C18.0552 7.8306 19.385 5.20654 22.5014 3.70107C25.9518 2.0343 28.8313 2.57308 32.2949 3.80681C34.7912 5.91836 36.4853 7.45097 37.3797 10.7486C40.1924 10.5702 42.6509 10.9558 44.832 12.9005C46.6236 14.4981 47.7636 16.7017 47.902 19.1175C47.954 20.0228 47.9063 20.9611 47.7933 21.8603C46.8794 24.3617 45.0243 26.9602 42.5702 28.1035C39.8073 29.3911 37.0185 28.5872 34.1566 28.9822C31.9263 31.8043 29.5475 34.7219 28.5948 38.2872C28.023 37.3147 27.364 36.4435 26.4692 35.7494C25.1028 34.6898 23.4144 34.2764 21.7176 34.5027C21.6266 34.2577 21.5313 34.0145 21.4317 33.7729C20.3071 31.0683 18.5018 30.0961 15.933 29.0283C15.048 28.9717 14.1381 29.1364 13.2611 29.0029C13.1515 28.8299 13.0966 28.7416 12.9158 28.6363C12.5619 28.4302 12.0477 28.3308 11.6602 28.1759C10.4522 27.6931 9.37612 27.0317 8.43488 26.1236C8.33371 26.0264 8.23501 25.9268 8.13879 25.8247C8.04243 25.7226 7.94881 25.618 7.85796 25.5111C7.76697 25.4043 7.67866 25.2952 7.59303 25.1838C7.50755 25.0724 7.42489 24.9589 7.34506 24.8433C7.26523 24.7276 7.18836 24.61 7.11446 24.4906C7.04042 24.3711 6.96949 24.2497 6.90167 24.1265C6.83385 24.0035 6.76914 23.8787 6.70753 23.7522C6.64593 23.6258 6.5875 23.4979 6.53225 23.3686C6.477 23.2391 6.42508 23.1083 6.37647 22.9763C6.32787 22.8443 6.28258 22.7111 6.24062 22.5768C6.19865 22.4424 6.16008 22.307 6.12489 22.1707C6.08971 22.0344 6.05792 21.8973 6.02952 21.7595C6.00126 21.6215 5.97646 21.4829 5.95513 21.3437C5.93365 21.2046 5.91578 21.0649 5.90151 20.9248C5.8871 20.7847 5.87622 20.6443 5.86887 20.5037C5.86152 20.363 5.8577 20.2222 5.85742 20.0814C5.85756 19.9261 5.86152 19.771 5.86929 19.6161C5.87692 19.4611 5.88837 19.3065 5.90363 19.1521C5.91889 18.9977 5.93782 18.8437 5.96043 18.6902C5.98317 18.5367 6.0096 18.3839 6.0397 18.2317C6.06979 18.0795 6.10349 17.9281 6.14079 17.7776C6.17824 17.6272 6.21935 17.4777 6.26414 17.3291C6.30879 17.1806 6.35705 17.0333 6.4089 16.8871C6.46076 16.741 6.51608 16.5963 6.57485 16.453C6.63378 16.3096 6.69608 16.1678 6.76179 16.0275C6.82749 15.8871 6.89658 15.7484 6.96907 15.6115C7.04155 15.4747 7.11729 15.3397 7.19628 15.2065C7.27526 15.0732 7.35742 14.942 7.44277 14.813C7.52811 14.6838 7.61656 14.5568 7.70812 14.4321C7.79968 14.3073 7.89421 14.1849 7.9917 14.0648C8.08919 13.9446 8.18951 13.827 8.29266 13.7119C8.3958 13.5967 8.50171 13.4841 8.61037 13.3742C10.8631 11.0979 13.5351 10.7888 16.5634 10.7995Z" fill="#FEFEFE"/>
<path d="M15.933 29.0283C17.7648 28.7683 19.8773 28.9589 21.7339 28.9565C25.8749 28.9423 30.0158 28.9508 34.1566 28.9821C31.9263 31.8042 29.5475 34.7218 28.5948 38.2871C28.0229 37.3147 27.364 36.4435 26.4692 35.7494C25.1028 34.6898 23.4144 34.2764 21.7176 34.5026C21.6266 34.2577 21.5313 34.0144 21.4317 33.7729C20.3071 31.0683 18.5018 30.096 15.933 29.0283Z" fill="#477EB4"/>
<path d="M32.2949 3.80684L32.41 3.77351C33.6897 3.39303 34.9281 2.82477 36.1849 2.36781C37.3885 1.93029 38.6462 1.58741 39.8905 1.28832C40.2367 1.20472 40.5839 1.1251 40.932 1.04948C41.28 0.973853 41.6289 0.902285 41.9786 0.834777C42.3282 0.767268 42.6786 0.703821 43.0299 0.644431C43.381 0.585041 43.7327 0.529709 44.0851 0.478437C44.4375 0.427307 44.7904 0.380238 45.1438 0.337226C45.4973 0.294215 45.8513 0.255263 46.2056 0.22037C46.56 0.185619 46.9147 0.154927 47.2698 0.128294C47.6249 0.101803 47.9802 0.0793712 48.3357 0.0609988C48.6913 0.0426263 49.0471 0.0284542 49.403 0.0184847C49.7588 0.00837272 50.1147 0.00239108 50.4708 0.000539588C50.8269 -0.00116948 51.1829 0.00118151 51.5388 0.0075905C51.8948 0.0141419 52.2507 0.0247528 52.6063 0.0394223C52.9621 0.0540917 53.3177 0.0729625 53.6731 0.0960349C54.0283 0.118965 54.3833 0.146023 54.7381 0.177213C55.0927 0.208404 55.447 0.243725 55.8008 0.283176C56.1547 0.322627 56.5081 0.366208 56.8609 0.413919C57.2139 0.461488 57.5662 0.513187 57.9179 0.569016C58.2696 0.624846 58.6206 0.684735 58.971 0.748682C59.3213 0.812772 59.6709 0.880852 60.0197 0.952918C60.3684 1.02498 60.7163 1.10111 61.0633 1.18129C61.4104 1.26148 61.7565 1.34564 62.1017 1.4338C62.4467 1.52196 62.7908 1.61411 63.1338 1.71025C63.4769 1.80652 63.8188 1.90672 64.1594 2.01083C64.5001 2.11494 64.8395 2.22296 65.1778 2.33491C65.5161 2.44699 65.8531 2.56293 66.1888 2.6827C66.5244 2.80248 66.8585 2.92618 67.1913 3.05379C67.524 3.1814 67.8553 3.31285 68.1851 3.44815C68.5149 3.58331 68.8431 3.72238 69.1698 3.86538C69.4963 4.00823 69.8212 4.15485 70.1445 4.30524C70.4678 4.45564 70.7892 4.60982 71.1089 4.76776C71.4286 4.92557 71.7465 5.08714 72.0626 5.2525C72.3787 5.4177 72.6928 5.58662 73.0049 5.75923C77.83 8.37496 83.8751 13.3434 87 17.8225C83.5955 20.73 79.9815 23.4164 76.4437 26.1578C74.1225 27.9566 71.8587 29.882 69.4707 31.5847C68.4237 30.279 67.3689 28.9844 66.1432 27.8416C62.584 24.5231 57.7059 22.2459 52.8759 21.7531C51.3237 21.5946 49.3 21.4867 47.7933 21.8603C47.9063 20.9612 47.954 20.0229 47.902 19.1175C47.7636 16.7017 46.6236 14.4981 44.832 12.9006C42.6509 10.9559 40.1924 10.5703 37.3796 10.7486C36.4852 7.45099 34.7912 5.91839 32.2949 3.80684Z" fill="#0D3053"/>
<path d="M7.401 47.3411C11.1145 47.2369 14.8428 47.3108 18.559 47.2973C20.3828 47.2907 22.6207 47.5212 24.386 47.0555C25.7715 46.69 26.7244 45.8946 27.7269 44.9224C27.7332 44.9644 27.74 45.0065 27.7459 45.0488C28.0047 46.9051 27.8472 48.7947 28.1234 50.6719C29.0405 56.9021 32.5626 62.4057 37.4858 66.1947C42.4078 69.9826 48.4344 71.2539 54.5242 70.4011C59.1815 69.7491 63.623 67.1214 66.9191 63.7998C67.9307 62.7806 68.7885 61.509 69.8495 60.5652C71.7646 61.7039 73.4665 63.3213 75.2842 64.6242C77.4458 66.1737 79.597 67.7514 81.7724 69.2793C83.4722 70.4729 85.2281 71.566 86.8063 72.928C86.0015 74.4494 84.5001 75.9188 83.292 77.1271C78.0329 82.3885 71.7699 86.715 64.6346 88.9116C64.2801 89.0245 63.9242 89.133 63.5668 89.2371C63.2096 89.3411 62.8512 89.4406 62.4914 89.5356C62.1318 89.6306 61.771 89.721 61.409 89.8069C61.047 89.8928 60.684 89.974 60.3201 90.0507C59.9561 90.1274 59.5912 90.1995 59.2254 90.2668C58.8597 90.3343 58.4932 90.3972 58.1258 90.4555C57.7584 90.5137 57.3904 90.5673 57.0218 90.6161C56.6531 90.6651 56.2839 90.7094 55.9142 90.749C55.5444 90.7886 55.1742 90.8235 54.8036 90.8537C54.4329 90.8839 54.062 90.9095 53.6907 90.9304C53.3195 90.9513 52.948 90.9675 52.5763 90.9789C52.2046 90.9904 51.8329 90.9973 51.461 90.9994C51.0891 91.0015 50.7173 90.999 50.3455 90.9917C49.9738 90.9843 49.6022 90.9723 49.2307 90.9556C48.8592 90.9389 48.488 90.9176 48.1169 90.8915C47.746 90.8656 47.3755 90.8349 47.0053 90.7994C46.6351 90.764 46.2654 90.7239 45.8962 90.6792C45.5271 90.6344 45.1586 90.585 44.7905 90.5309C44.4225 90.4769 44.0553 90.4182 43.6888 90.3549C43.3223 90.2916 42.9567 90.2237 42.592 90.1511C42.2272 90.0786 41.8632 90.0014 41.5003 89.9197C41.1374 89.8379 40.7756 89.7516 40.4149 89.6605C40.0542 89.5697 39.6946 89.4743 39.3361 89.3743C38.9778 89.2743 38.6207 89.1698 38.2649 89.0609C37.9092 88.9519 37.5548 88.8385 37.2018 88.7206C36.8489 88.6025 36.4975 88.4801 36.1476 88.3533C35.7976 88.2266 35.4493 88.0953 35.1027 87.9596C34.756 87.824 34.4111 87.6841 34.068 87.5398C33.7248 87.3954 33.3834 87.2467 33.0439 87.0938C32.7045 86.9409 32.367 86.7838 32.0314 86.6223C31.6959 86.4608 31.3623 86.2951 31.0309 86.1251C30.6994 85.9552 30.3701 85.7812 30.043 85.603C20.262 80.3338 12.6123 70.7478 9.41129 60.0662C8.21338 56.0687 7.39083 51.5241 7.401 47.3411Z" fill="#477EB4"/>
<path d="M15.3165 49.9829C15.8054 51.1117 16.3488 52.9941 16.0462 54.1893C15.9292 54.6512 15.6757 55.1216 15.2408 55.3475C14.6885 55.6342 14.0319 55.5921 13.4524 55.431C13.1012 55.2035 12.7937 54.9881 12.5671 54.626C12.2655 54.1436 12.1778 53.6187 12.3215 53.0663C12.6979 51.6196 14.1317 50.7129 15.3165 49.9829Z" fill="#FEFEFE"/>
<path d="M19.9879 56.719C20.0034 56.735 20.0227 56.748 20.0341 56.7671C20.4945 57.5443 20.9389 59.731 20.7742 60.636C20.6748 61.1831 20.4059 61.689 19.9322 61.9934C19.3436 62.3715 18.7209 62.2929 18.073 62.1515C17.7507 61.9331 17.4452 61.7131 17.2223 61.3862C16.9196 60.9421 16.8096 60.4193 16.927 59.8925C17.2511 58.4366 18.8121 57.4458 19.9879 56.719Z" fill="#FEFEFE"/>
<path d="M24.2857 63.5657L24.3796 63.6304C24.7974 64.7439 25.3542 66.3149 25.1702 67.5241C25.0869 68.0723 24.8207 68.5986 24.3559 68.9118C23.7421 69.3252 23.0647 69.2468 22.3799 69.1041C22.0241 68.8789 21.6846 68.5841 21.4546 68.2263C21.1606 67.7685 21.0797 67.25 21.2162 66.7232C21.5824 65.3087 23.1014 64.2643 24.2857 63.5657Z" fill="#FEFEFE"/>
<path d="M50.7321 72.7056C50.7783 72.7363 50.8277 72.7628 50.8708 72.7983C51.2639 73.1209 51.6634 73.8442 51.9616 74.279C53.6366 76.7197 55.4799 79.6001 55.8949 82.594C56.0986 84.0646 55.8389 85.6118 54.9153 86.8032C53.8592 88.1651 52.4014 88.5994 50.7752 88.7746C49.311 88.7891 47.7662 88.2262 46.7311 87.1613C45.7661 86.1685 45.343 84.7534 45.3596 83.3851C45.4 80.0287 48.427 74.9701 50.7321 72.7056Z" fill="#46BAF9"/>
</svg>
