<svg width="150" height="150" viewBox="0 0 53 53" fill="none" xmlns="http://www.w3.org/2000/svg">
<path d="M24.1377 22.0567C24.1559 22.0544 24.1742 22.0527 24.1925 22.0513C24.3788 22.038 24.8394 22.0761 24.9599 22.2186C25.0106 22.2785 24.9979 22.319 24.9913 22.3907C24.8104 22.3729 24.5895 22.3046 24.4163 22.2449C24.2985 22.2044 24.1945 22.1721 24.1377 22.0567Z" fill="#FCBE46"/>
<path d="M25.9463 25.5322C26.0063 25.5389 26.0146 25.5341 26.0664 25.5707L26.0716 25.635C25.9724 25.8815 25.6949 26.1034 25.5085 26.2894C25.4477 26.2912 25.4407 26.2852 25.388 26.2532L25.3839 26.1935C25.4931 25.9386 25.737 25.7087 25.9463 25.5322Z" fill="#FCBE46"/>
<path d="M24.8609 24.0467C24.9224 24.0356 24.9584 24.0247 25.0183 24.0493C25.0469 24.1103 25.0537 24.1132 25.0382 24.1778C24.8902 24.3398 24.4903 24.3757 24.2805 24.418C24.2744 24.42 24.2686 24.4232 24.2622 24.4238C24.1836 24.4314 24.1706 24.4181 24.1107 24.3726L24.1071 24.3295C24.2466 24.1677 24.6546 24.1065 24.8609 24.0467Z" fill="#FCBE46"/>
<path d="M29.4069 25.4797C29.5893 25.5805 29.9534 25.9293 30.0134 26.1395C30.0316 26.2034 29.9983 26.2495 29.9678 26.3019C29.9269 26.2808 29.9271 26.282 29.8866 26.2563C29.7259 26.1544 29.3622 25.7839 29.3321 25.5894C29.3255 25.5465 29.3789 25.5098 29.4069 25.4797Z" fill="#FCBE46"/>
<path d="M30.4233 24.0308C30.6287 24.0805 31.1723 24.1609 31.2873 24.3292C31.284 24.3975 31.2737 24.3998 31.2279 24.4522C30.9939 24.4204 30.5199 24.3773 30.3732 24.1901C30.366 24.11 30.383 24.0979 30.4233 24.0308Z" fill="#FCBE46"/>
<path d="M31.1066 22.0029C31.1386 22.004 31.1584 22.0039 31.1913 22.0093C31.2484 22.0188 31.2799 22.0312 31.3109 22.0811C31.3073 22.0888 31.3044 22.097 31.3001 22.1044C31.203 22.2711 30.7098 22.3567 30.5225 22.4043C30.4733 22.4056 30.4427 22.3938 30.3963 22.3788C30.368 22.3152 30.3693 22.3156 30.3879 22.2483C30.5321 22.1032 30.908 22.0458 31.1066 22.0029Z" fill="#FCBE46"/>
<path d="M25.4449 20.0469C25.4684 20.0562 25.4716 20.0567 25.4968 20.071C25.6435 20.1539 26.0676 20.6317 26.0911 20.7935C26.1024 20.871 26.0921 20.8846 26.0498 20.9444C25.8697 20.8207 25.4392 20.4419 25.3947 20.2212C25.3772 20.1348 25.4 20.118 25.4449 20.0469Z" fill="#FCBE46"/>
<path d="M27.6528 19.3958L27.7434 19.4144C27.7899 19.4498 27.814 19.4805 27.8288 19.5383C27.8831 19.7515 27.8828 20.1917 27.7797 20.3816L27.6763 20.3645C27.6414 20.3336 27.6244 20.3122 27.6078 20.2675C27.5316 20.0625 27.5643 19.5901 27.6528 19.3958Z" fill="#FCBE46"/>
<path d="M29.8723 20.1216C29.9133 20.1253 29.9508 20.1357 29.9907 20.1454C30.0124 20.1746 30.0365 20.1911 30.0335 20.23C30.0174 20.4367 29.6216 20.7822 29.4743 20.9364C29.4018 20.9326 29.3825 20.9421 29.3295 20.8941C29.3233 20.863 29.3208 20.8608 29.3252 20.8245C29.3515 20.611 29.7177 20.2663 29.8723 20.1216Z" fill="#FCBE46"/>
<path d="M27.6538 25.9934C27.695 26.0024 27.7305 26.0155 27.7698 26.0304C27.8021 26.0709 27.8192 26.0998 27.8324 26.1511C27.8915 26.3808 27.8884 26.8787 27.7627 27.0764L27.6881 27.0551C27.6608 27.0276 27.6404 27.0024 27.6277 26.9652C27.549 26.7342 27.5432 26.2096 27.6538 25.9934Z" fill="#FCBE46"/>
<path d="M33.9174 37.5783C33.9786 37.574 34.0424 37.568 34.1035 37.5749C34.2199 37.5881 34.3225 37.6609 34.3892 37.7552C34.3951 37.7636 34.4006 37.7722 34.4056 37.7811C34.4106 37.7901 34.4151 37.7993 34.4191 37.8087C34.4231 37.8182 34.4266 37.8278 34.4296 37.8376C34.4326 37.8474 34.435 37.8573 34.4369 37.8674C34.4388 37.8775 34.4402 37.8876 34.441 37.8978C34.4418 37.908 34.4421 37.9182 34.4418 37.9284C34.4415 37.9387 34.4406 37.9489 34.4393 37.9591C34.4379 37.9692 34.436 37.9793 34.4335 37.9892C34.4025 38.1183 34.3191 38.1733 34.2095 38.2355C34.1569 38.2416 34.1049 38.2473 34.0519 38.243C34.0395 38.242 34.0271 38.2403 34.0148 38.238C34.0026 38.2357 33.9904 38.2328 33.9785 38.2293C33.9665 38.2258 33.9547 38.2217 33.9431 38.217C33.9316 38.2124 33.9202 38.2071 33.9092 38.2013C33.8981 38.1955 33.8874 38.1891 33.877 38.1822C33.8666 38.1753 33.8566 38.1679 33.8469 38.16C33.8372 38.1521 33.828 38.1437 33.8192 38.1349C33.8103 38.1261 33.802 38.1168 33.794 38.1072C33.7406 38.0404 33.7162 37.9584 33.7262 37.8733C33.7421 37.738 33.8159 37.6606 33.9174 37.5783Z" fill="#FEFEFE"/>
<path d="M16.4069 37.5736C16.4586 37.5701 16.5095 37.5685 16.5612 37.5735C16.6695 37.5839 16.7669 37.6358 16.8332 37.7231C16.8829 37.7886 16.9014 37.8703 16.8881 37.9511C16.865 38.0926 16.7772 38.1625 16.6667 38.2421C16.6004 38.2475 16.5173 38.2608 16.4523 38.2439C16.4404 38.2409 16.4286 38.2373 16.417 38.2331C16.4054 38.229 16.394 38.2243 16.3829 38.219C16.3717 38.2138 16.3608 38.208 16.3502 38.2017C16.3396 38.1953 16.3294 38.1885 16.3194 38.1813C16.3095 38.174 16.2999 38.1662 16.2907 38.158C16.2815 38.1498 16.2727 38.1412 16.2644 38.1321C16.256 38.1231 16.2481 38.1136 16.2406 38.1038C16.2332 38.094 16.2262 38.0838 16.2197 38.0733C16.1749 38.0014 16.1632 37.9164 16.1841 37.8346C16.2173 37.7057 16.2978 37.6402 16.4069 37.5736Z" fill="#FEFEFE"/>
<path d="M16.2553 38.7157L16.8008 38.7153C16.7961 39.586 16.8293 40.4602 16.8013 41.3299L16.2586 41.3271C16.2524 40.4567 16.2513 39.5862 16.2553 38.7157Z" fill="#FEFEFE"/>
<path d="M33.8085 38.7171L34.3637 38.7131C34.3505 39.5772 34.3726 40.4424 34.3634 41.3067C34.1769 41.3088 33.9903 41.3122 33.8038 41.3169C33.7987 40.4502 33.8003 39.5836 33.8085 38.7171Z" fill="#FEFEFE"/>
<path d="M15.0115 37.638L15.5463 37.6292C15.5495 38.861 15.571 40.0965 15.547 41.328L15.0099 41.3295C14.9959 40.0996 15.0096 38.8681 15.0115 37.638Z" fill="#FEFEFE"/>
<path d="M25.5911 37.9937C25.7566 37.9948 25.922 37.992 26.0873 37.9854C26.0845 38.1085 26.0457 38.6192 26.1236 38.69C26.1342 38.6996 26.1466 38.7068 26.1581 38.7152C26.3668 38.7674 26.6749 38.7194 26.894 38.7139L26.8908 39.199C26.6416 39.1956 26.3898 39.2101 26.1413 39.2016C26.225 39.5785 26.1656 40.186 26.1607 40.58C26.1765 40.676 26.1941 40.7361 26.2756 40.7996C26.4322 40.9218 26.7245 40.8615 26.9063 40.8405C26.8869 40.9895 26.8935 41.15 26.8903 41.3007C26.7534 41.3256 26.618 41.3431 26.4788 41.347C26.2465 41.3535 25.99 41.3071 25.8209 41.1349C25.4967 40.8049 25.6153 39.6722 25.6203 39.2103L25.2016 39.198C25.2072 39.0378 25.1988 38.8774 25.1931 38.7173L25.5948 38.7165C25.5868 38.4759 25.5909 38.2344 25.5911 37.9937Z" fill="#FEFEFE"/>
<path d="M32.8186 37.7185C33.0227 37.6993 33.235 37.7081 33.4402 37.7056C33.371 37.9136 33.2765 38.1175 33.1932 38.3204L32.5027 40.092C32.3444 40.4968 32.196 40.9093 32.0157 41.3048L31.4609 41.3078C31.2824 40.8844 30.052 37.9693 30.0521 37.749L30.1084 37.7159C30.2785 37.7055 30.4497 37.7093 30.6201 37.7097C30.8033 38.0662 30.9236 38.4629 31.0672 38.8365C31.2948 39.4287 31.5426 40.0226 31.7355 40.627C31.8924 40.1468 32.0797 39.6765 32.2548 39.2027C32.4381 38.7067 32.6116 38.2051 32.8186 37.7185Z" fill="#FEFEFE"/>
<path d="M12.9845 37.6648C13.068 37.6545 13.1502 37.6605 13.2338 37.6659C13.7684 37.7008 14.1722 37.9487 14.5205 38.3429C14.3823 38.4717 14.2363 38.571 14.0788 38.6746C13.9051 38.4949 13.7232 38.3416 13.4832 38.2572C13.1593 38.1435 12.7715 38.1783 12.4683 38.339C12.1747 38.4946 11.984 38.7759 11.896 39.0913C11.7937 39.4581 11.8388 39.8955 12.0298 40.2239C12.0399 40.2416 12.0504 40.259 12.0613 40.2761C12.0723 40.2932 12.0837 40.3101 12.0955 40.3266C12.1073 40.3432 12.1195 40.3594 12.1321 40.3753C12.1447 40.3913 12.1577 40.4069 12.1711 40.4222C12.1846 40.4375 12.1984 40.4524 12.2125 40.4669C12.2267 40.4815 12.2412 40.4958 12.2561 40.5096C12.271 40.5234 12.2862 40.5369 12.3018 40.55C12.3173 40.563 12.3332 40.5757 12.3494 40.588C12.3656 40.6003 12.3821 40.6121 12.3989 40.6236C12.4157 40.635 12.4328 40.646 12.4502 40.6566C12.4675 40.6672 12.4851 40.6773 12.503 40.687C12.5209 40.6967 12.539 40.7059 12.5574 40.7147C12.5757 40.7235 12.5942 40.7318 12.613 40.7397C12.6317 40.7475 12.6507 40.7549 12.6698 40.7618C12.6889 40.7686 12.7082 40.775 12.7277 40.7809C12.7471 40.7868 12.7667 40.7922 12.7864 40.7972C13.1663 40.8895 13.5069 40.7899 13.8329 40.5971C13.9271 40.5213 14.011 40.4272 14.0966 40.3417C14.2487 40.4405 14.3886 40.5599 14.5303 40.6731C14.2311 41.0351 13.7935 41.3026 13.3231 41.3501C12.829 41.3999 12.3263 41.2726 11.9399 40.9555C11.9171 40.9369 11.8947 40.9178 11.8729 40.8981C11.851 40.8784 11.8296 40.8581 11.8087 40.8374C11.7878 40.8166 11.7675 40.7954 11.7477 40.7736C11.7278 40.7518 11.7085 40.7296 11.6898 40.7068C11.6711 40.6841 11.6529 40.661 11.6353 40.6373C11.6178 40.6137 11.6008 40.5896 11.5844 40.5652C11.568 40.5407 11.5522 40.5159 11.537 40.4906C11.5219 40.4654 11.5074 40.4398 11.4935 40.4138C11.4796 40.3878 11.4664 40.3615 11.4538 40.3349C11.4412 40.3083 11.4293 40.2814 11.418 40.2542C11.4068 40.2269 11.3962 40.1995 11.3863 40.1718C11.3764 40.144 11.3672 40.1161 11.3587 40.0879C11.3502 40.0597 11.3424 40.0313 11.3353 40.0027C11.3282 39.9741 11.3218 39.9454 11.3161 39.9165C11.3104 39.8876 11.3055 39.8586 11.3012 39.8294C11.297 39.8003 11.2935 39.7711 11.2907 39.7418C11.2403 39.2136 11.3687 38.6657 11.7166 38.2552C12.0453 37.8673 12.4892 37.7034 12.9845 37.6648Z" fill="#FEFEFE"/>
<path d="M28.4738 38.6716C28.4845 38.6712 28.4952 38.6705 28.5058 38.6703C28.859 38.6653 29.199 38.7789 29.4515 39.0323C29.7931 39.3751 29.8265 39.7601 29.8172 40.2161C29.1221 40.2102 28.4273 40.2201 27.7327 40.2456C27.7798 40.3481 27.8305 40.4493 27.9009 40.5382C27.9105 40.5504 27.9204 40.5623 27.9306 40.574C27.9409 40.5856 27.9514 40.597 27.9622 40.6082C27.973 40.6193 27.9841 40.6302 27.9955 40.6407C28.0068 40.6513 28.0185 40.6616 28.0304 40.6716C28.0422 40.6816 28.0544 40.6912 28.0668 40.7006C28.0792 40.7099 28.0918 40.719 28.1046 40.7277C28.1175 40.7364 28.1305 40.7448 28.1438 40.7529C28.1571 40.7609 28.1705 40.7686 28.1842 40.7759C28.1979 40.7833 28.2117 40.7903 28.2257 40.797C28.2398 40.8036 28.2539 40.8099 28.2683 40.8158C28.2826 40.8218 28.2971 40.8273 28.3117 40.8325C28.3264 40.8377 28.3411 40.8426 28.356 40.847C28.3709 40.8514 28.3858 40.8555 28.4009 40.8592C28.416 40.8628 28.4312 40.8661 28.4464 40.869C28.4617 40.8719 28.477 40.8744 28.4923 40.8766C28.5077 40.8787 28.5231 40.8804 28.5386 40.8817C28.8434 40.9068 29.1061 40.7856 29.3324 40.5906C29.4655 40.6738 29.5702 40.7863 29.6802 40.8968C29.4692 41.1024 29.2568 41.2594 28.9604 41.3214C28.5731 41.4024 28.0912 41.3424 27.7629 41.116C27.7449 41.1033 27.7273 41.0902 27.7099 41.0767C27.6926 41.0631 27.6756 41.0491 27.659 41.0347C27.6424 41.0203 27.6261 41.0054 27.6103 40.9902C27.5944 40.9749 27.5789 40.9593 27.5638 40.9433C27.5488 40.9272 27.5341 40.9108 27.5198 40.8941C27.5055 40.8773 27.4917 40.8602 27.4783 40.8427C27.4649 40.8252 27.452 40.8075 27.4395 40.7893C27.427 40.7712 27.415 40.7528 27.4034 40.7341C27.3919 40.7153 27.3808 40.6963 27.3702 40.677C27.3596 40.6577 27.3495 40.6382 27.3398 40.6184C27.3302 40.5986 27.3211 40.5786 27.3125 40.5584C27.3039 40.5381 27.2958 40.5176 27.2883 40.497C27.2807 40.4763 27.2736 40.4554 27.2671 40.4344C27.2606 40.4134 27.2546 40.3922 27.2492 40.3709C27.2437 40.3496 27.2388 40.3281 27.2344 40.3065C27.2301 40.285 27.2263 40.2633 27.223 40.2415C27.1678 39.8867 27.2328 39.5302 27.4473 39.2376C27.7047 38.8865 28.0575 38.729 28.4738 38.6716ZM28.507 39.1355C28.2423 39.1821 28.0424 39.2454 27.8844 39.4815C27.8157 39.5842 27.7705 39.6979 27.7245 39.8118C28.0184 39.832 28.3146 39.8266 28.6091 39.8278L29.335 39.8262C29.253 39.5734 29.1444 39.3473 28.8926 39.2233C28.7741 39.165 28.6384 39.1379 28.507 39.1355Z" fill="#FEFEFE"/>
<path d="M36.0868 38.6695C36.1147 38.6684 36.1427 38.6674 36.1706 38.6675C36.5318 38.6687 36.8794 38.7928 37.1333 39.0566C37.4638 39.3997 37.4839 39.7808 37.4722 40.228C36.7917 40.2845 36.0881 40.2034 35.403 40.2383C35.4425 40.3323 35.4837 40.4331 35.5406 40.5179C35.5562 40.5411 35.5729 40.5634 35.5907 40.5849C35.6085 40.6064 35.6274 40.627 35.6473 40.6466C35.6671 40.6662 35.6879 40.6847 35.7097 40.7022C35.7314 40.7197 35.754 40.7361 35.7774 40.7514C35.8008 40.7666 35.8249 40.7807 35.8496 40.7935C35.8744 40.8064 35.8998 40.818 35.9257 40.8283C35.9517 40.8386 35.9781 40.8475 36.005 40.8552C36.0318 40.8628 36.059 40.8691 36.0864 40.8741C36.3994 40.9293 36.6651 40.8209 36.916 40.6463L36.9702 40.6139C37.0946 40.6449 37.2201 40.8062 37.3111 40.8976C37.1 41.105 36.8786 41.2666 36.5827 41.3298C36.1866 41.4142 35.7273 41.3438 35.3934 41.1109C35.1219 40.9215 34.9518 40.6286 34.8922 40.3059C34.8224 39.9282 34.9007 39.5188 35.1309 39.2086C35.3699 38.8865 35.702 38.7306 36.0868 38.6695ZM36.0335 39.1621C35.7944 39.2312 35.6267 39.3256 35.506 39.5536C35.4599 39.6404 35.4236 39.735 35.3895 39.8273L36.3073 39.8243C36.5336 39.8235 36.7643 39.8321 36.9897 39.8128C36.8978 39.5659 36.7942 39.3298 36.537 39.2163C36.3726 39.1438 36.2077 39.151 36.0335 39.1621Z" fill="#FEFEFE"/>
<path d="M41.2236 38.7168L41.7916 38.7171L41.621 39.2348C41.5225 39.4475 41.4585 39.687 41.3851 39.9101C41.2314 40.3771 41.085 40.851 40.894 41.3044L40.3418 41.3095C40.1867 40.6696 39.8756 40.065 39.7246 39.4255C39.4863 40.0435 39.2845 40.6802 39.0588 41.3037L38.5071 41.3085C38.2431 40.4365 37.931 39.5805 37.6311 38.7206L38.1971 38.7195C38.4307 39.3383 38.6121 39.9807 38.8092 40.6121C39.0269 39.9817 39.2036 39.3327 39.4612 38.717C39.6276 38.7159 39.7925 38.7229 39.9586 38.732C40.2088 39.1809 40.4848 40.1155 40.6371 40.6324C40.8369 39.9949 41.0152 39.352 41.2236 38.7168Z" fill="#FEFEFE"/>
<path d="M18.5933 38.6951C18.7023 38.6851 18.8134 38.6734 18.9226 38.6855C19.2509 38.7216 19.4406 38.9044 19.6417 39.1454C19.8708 38.8876 20.128 38.6969 20.4869 38.6811C20.7589 38.6691 21.0659 38.7795 21.2595 38.9723C21.6285 39.3394 21.564 39.9346 21.5619 40.4108L21.5566 41.3067L21.0183 41.3279C21.0107 40.8537 21.1342 39.6838 20.8189 39.3467C20.7239 39.2451 20.5942 39.191 20.4556 39.1898C20.4339 39.1898 20.4123 39.1909 20.3907 39.1931C20.3692 39.1952 20.3478 39.1985 20.3266 39.2029C20.3053 39.2073 20.2844 39.2127 20.2637 39.2192C20.2431 39.2258 20.2228 39.2333 20.2029 39.2419C20.183 39.2505 20.1636 39.2601 20.1447 39.2707C20.1258 39.2813 20.1075 39.2928 20.0898 39.3053C20.072 39.3178 20.055 39.3311 20.0386 39.3453C20.0223 39.3595 20.0067 39.3746 19.9919 39.3904C19.7084 39.6941 19.7965 40.2494 19.8002 40.6364L19.796 41.3259C19.6169 41.3089 19.4326 41.3207 19.2528 41.3246C19.2559 40.8793 19.3599 39.7003 19.0879 39.3672C18.9993 39.2587 18.88 39.2019 18.741 39.1931C18.5619 39.1817 18.375 39.2345 18.2458 39.3626C17.923 39.6824 18.0352 40.8709 18.0379 41.3264C17.8553 41.3324 17.6727 41.3304 17.49 41.3297C17.4796 40.4589 17.4806 39.5882 17.4932 38.7175L18.0265 38.7276L18.0129 39.0257C18.2026 38.8733 18.3576 38.7663 18.5933 38.6951Z" fill="#FEFEFE"/>
<path d="M23.2084 38.6964C23.6242 38.6549 23.8874 38.8036 24.1974 39.0562C24.1976 38.9416 24.1902 38.8589 24.2583 38.7623C24.3816 38.6904 24.596 38.7176 24.7392 38.7144L24.7414 41.3051C24.5607 41.3148 24.3793 41.3178 24.1984 41.3236C24.1997 41.2278 24.2137 41.1131 24.1841 41.0215C24.1142 41.0223 24.0839 41.0763 24.0348 41.1235C23.889 41.2302 23.7346 41.3016 23.5565 41.3365C23.2337 41.3996 22.8827 41.3348 22.6105 41.1483C22.3265 40.9537 22.1433 40.6461 22.0802 40.3104C22.0099 39.9362 22.0835 39.521 22.3066 39.2094C22.5306 38.8965 22.8416 38.7607 23.2084 38.6964ZM23.3842 39.188C23.1312 39.2255 22.9257 39.3007 22.7697 39.5184C22.6252 39.7199 22.5843 39.9895 22.6336 40.2296C22.679 40.4505 22.8037 40.6399 22.9979 40.7571C23.1593 40.8546 23.3241 40.8684 23.5085 40.8705C23.7479 40.8166 23.9277 40.7422 24.0655 40.5242C24.1984 40.3141 24.2317 40.039 24.1725 39.7994C24.1197 39.585 23.9861 39.3886 23.7897 39.2824C23.6641 39.2145 23.5256 39.1901 23.3842 39.188Z" fill="#FEFEFE"/>
<path d="M27.6425 20.7661C27.659 20.765 27.6755 20.7635 27.6921 20.7629C28.2603 20.7415 28.916 21.0061 29.3276 21.3937C29.358 21.4218 29.3877 21.4507 29.4166 21.4803C29.4456 21.5099 29.4738 21.5402 29.5012 21.5712C29.5287 21.6022 29.5554 21.6339 29.5813 21.6662C29.6072 21.6984 29.6323 21.7314 29.6566 21.765C29.6809 21.7985 29.7043 21.8326 29.7269 21.8673C29.7495 21.902 29.7713 21.9372 29.7922 21.973C29.813 22.0088 29.833 22.0451 29.852 22.0818C29.8711 22.1186 29.8893 22.1558 29.9065 22.1934C29.9238 22.2311 29.9401 22.2691 29.9555 22.3076C29.9708 22.346 29.9853 22.3848 29.9987 22.424C30.0122 22.4632 30.0246 22.5027 30.0361 22.5425C30.0477 22.5822 30.0582 22.6222 30.0677 22.6625C30.0773 22.7028 30.0858 22.7434 30.0933 22.7841C30.1009 22.8248 30.1074 22.8657 30.1129 22.9067C30.1185 22.9478 30.123 22.989 30.1265 23.0302C30.13 23.0715 30.1325 23.1128 30.1339 23.1542C30.1533 23.8678 29.9283 24.467 29.4324 24.9831C29.4065 25.0104 29.38 25.0371 29.3528 25.0631C29.3256 25.0891 29.2978 25.1145 29.2693 25.1391C29.2409 25.1638 29.2118 25.1877 29.1822 25.2109C29.1526 25.2341 29.1224 25.2566 29.0917 25.2783C29.0609 25.3 29.0297 25.321 28.9979 25.3412C28.9662 25.3613 28.9339 25.3807 28.9011 25.3993C28.8684 25.4178 28.8353 25.4356 28.8017 25.4526C28.7681 25.4695 28.7341 25.4856 28.6997 25.5009C28.6653 25.5162 28.6305 25.5306 28.5954 25.5441C28.5603 25.5577 28.5248 25.5703 28.4891 25.5821C28.4534 25.5939 28.4174 25.6049 28.3811 25.6149C28.3448 25.6249 28.3083 25.634 28.2716 25.6422C28.2349 25.6504 28.1979 25.6578 28.1609 25.6642C28.1238 25.6706 28.0866 25.676 28.0492 25.6806C28.0118 25.6851 27.9744 25.6888 27.9368 25.6915C27.8993 25.6942 27.8617 25.696 27.8241 25.6968C27.2638 25.7095 26.7128 25.5759 26.2676 25.2226C25.7152 24.7842 25.3589 24.1679 25.2805 23.4661C25.2761 23.4253 25.2728 23.3845 25.2705 23.3436C25.2682 23.3026 25.2669 23.2616 25.2667 23.2206C25.2664 23.1796 25.2671 23.1386 25.2689 23.0977C25.2707 23.0567 25.2735 23.0158 25.2773 22.9749C25.2811 22.9341 25.2859 22.8934 25.2918 22.8529C25.2976 22.8122 25.3044 22.7718 25.3123 22.7316C25.3201 22.6913 25.329 22.6513 25.3388 22.6115C25.3486 22.5717 25.3595 22.5321 25.3713 22.4929C25.3831 22.4536 25.3959 22.4146 25.4096 22.376C25.4234 22.3374 25.4381 22.2991 25.4537 22.2612C25.4694 22.2233 25.486 22.1858 25.5035 22.1487C25.521 22.1116 25.5394 22.075 25.5588 22.0389C25.5781 22.0027 25.5983 21.967 25.6194 21.9319C25.6406 21.8967 25.6625 21.8621 25.6854 21.828C25.7082 21.794 25.7319 21.7605 25.7564 21.7276C25.7809 21.6948 25.8062 21.6625 25.8323 21.6309C26.3046 21.054 26.9192 20.8351 27.6425 20.7661Z" fill="#FCBE46"/>
<path d="M18.5349 18.749C18.7491 18.7814 18.9713 18.7415 19.1874 18.7552C19.8147 19.0139 20.2556 19.2494 20.5302 19.9047C20.5546 19.9632 20.5778 20.0221 20.6001 20.0815C21.0144 20.0267 21.4267 20.1268 21.7604 20.3835C21.9789 20.5517 22.1399 20.7628 22.2795 20.9984C22.4301 21.4526 22.4112 21.9292 22.1961 22.3605C22.1544 22.443 22.1116 22.5247 22.0675 22.6059C21.8227 22.8414 21.59 23.0341 21.2517 23.1227C20.8206 23.2355 20.2741 23.1796 19.8287 23.1813C18.9212 23.1845 18.0107 23.1666 17.1039 23.1919C16.6213 23.1864 16.1421 23.0795 15.776 22.7465C15.4779 22.4753 15.3213 22.1 15.2992 21.7016C15.2768 21.2962 15.3921 20.841 15.6735 20.5388C16.0162 20.1708 16.5811 20.0927 17.0574 20.0822C17.4233 19.3738 17.7634 18.9958 18.5349 18.749Z" fill="#FCBE46"/>
<path d="M19.3414 14.3389C19.7057 13.6196 20.0304 12.9839 20.7915 12.6191C21.6341 12.2153 22.3373 12.3459 23.1831 12.6448C23.7927 13.1563 24.2064 13.5276 24.4248 14.3266C25.1117 14.2834 25.7121 14.3768 26.2447 14.8479C26.6822 15.235 26.9606 15.7689 26.9944 16.3541C27.0071 16.5735 26.9955 16.8008 26.9679 17.0187C26.7447 17.6247 26.2917 18.2542 25.6924 18.5312C25.0177 18.8432 24.3366 18.6484 23.6377 18.7441C23.0931 19.4278 22.5122 20.1347 22.2795 20.9985C22.1399 20.7629 21.9789 20.5518 21.7604 20.3836C21.4267 20.1269 21.0144 20.0268 20.6001 20.0816C20.5778 20.0222 20.5546 19.9633 20.5302 19.9048C20.2556 19.2495 19.8147 19.014 19.1874 18.7553C18.9713 18.7416 18.7491 18.7815 18.5349 18.7491C18.5082 18.7072 18.4948 18.6858 18.4506 18.6603C18.3642 18.6104 18.2386 18.5863 18.144 18.5488C17.849 18.4318 17.5862 18.2716 17.3564 18.0515C17.3317 18.028 17.3075 18.0039 17.2841 17.9791C17.2605 17.9544 17.2377 17.9291 17.2155 17.9031C17.1932 17.8773 17.1717 17.8508 17.1508 17.8239C17.1299 17.7969 17.1097 17.7694 17.0902 17.7413C17.0707 17.7133 17.052 17.6848 17.0339 17.6559C17.0158 17.6269 16.9985 17.5975 16.9819 17.5677C16.9654 17.5379 16.9496 17.5077 16.9345 17.477C16.9195 17.4464 16.9052 17.4154 16.8917 17.3841C16.8782 17.3527 16.8656 17.321 16.8537 17.289C16.8418 17.257 16.8308 17.2248 16.8205 17.1922C16.8103 17.1597 16.8008 17.1269 16.7922 17.0939C16.7837 17.0608 16.7759 17.0276 16.769 16.9942C16.7621 16.9608 16.756 16.9272 16.7508 16.8935C16.7455 16.8598 16.7412 16.826 16.7377 16.792C16.7342 16.7581 16.7315 16.724 16.7297 16.69C16.7279 16.6559 16.727 16.6218 16.7269 16.5877C16.727 16.5501 16.7279 16.5125 16.7298 16.4749C16.7317 16.4374 16.7345 16.3999 16.7382 16.3625C16.7419 16.3251 16.7466 16.2878 16.7521 16.2506C16.7576 16.2134 16.7641 16.1764 16.7714 16.1395C16.7788 16.1027 16.787 16.066 16.7961 16.0295C16.8053 15.9931 16.8153 15.9569 16.8263 15.9209C16.8372 15.8849 16.8489 15.8492 16.8616 15.8138C16.8743 15.7784 16.8878 15.7433 16.9021 15.7086C16.9165 15.6739 16.9317 15.6395 16.9478 15.6055C16.9638 15.5715 16.9807 15.5379 16.9984 15.5047C17.0161 15.4716 17.0346 15.4389 17.0539 15.4066C17.0732 15.3743 17.0932 15.3425 17.1141 15.3113C17.1349 15.28 17.1565 15.2492 17.1789 15.219C17.2012 15.1888 17.2243 15.1591 17.2481 15.13C17.2719 15.1009 17.2964 15.0724 17.3216 15.0445C17.3468 15.0166 17.3727 14.9893 17.3992 14.9627C17.9493 14.4112 18.6019 14.3363 19.3414 14.3389Z" fill="#FEFEFE"/>
<path d="M19.1874 18.7551C19.6347 18.6921 20.1506 18.7383 20.604 18.7377C21.6152 18.7343 22.6265 18.7363 23.6377 18.7439C23.093 19.4276 22.5121 20.1345 22.2794 20.9983C22.1398 20.7627 21.9789 20.5516 21.7604 20.3835C21.4267 20.1267 21.0144 20.0266 20.6 20.0814C20.5778 20.022 20.5545 19.9631 20.5302 19.9046C20.2556 19.2493 19.8147 19.0138 19.1874 18.7551Z" fill="#477EB4"/>
<path d="M23.1831 12.6447L23.2112 12.6366C23.5237 12.5445 23.8261 12.4068 24.1331 12.2961C24.427 12.1901 24.7341 12.107 25.038 12.0345C25.1225 12.0143 25.2073 11.995 25.2923 11.9767C25.3773 11.9584 25.4625 11.941 25.5479 11.9247C25.6333 11.9083 25.7189 11.8929 25.8046 11.8785C25.8904 11.8642 25.9763 11.8507 26.0623 11.8383C26.1484 11.8259 26.2346 11.8145 26.3209 11.8041C26.4072 11.7937 26.4936 11.7843 26.5802 11.7758C26.6667 11.7674 26.7533 11.7599 26.8401 11.7535C26.9268 11.7471 27.0135 11.7416 27.1003 11.7372C27.1872 11.7327 27.2741 11.7293 27.361 11.7269C27.4479 11.7244 27.5348 11.723 27.6218 11.7225C27.7087 11.7221 27.7956 11.7227 27.8826 11.7243C27.9695 11.7258 28.0564 11.7284 28.1433 11.732C28.2301 11.7355 28.317 11.7401 28.4038 11.7457C28.4905 11.7512 28.5772 11.7578 28.6638 11.7653C28.7505 11.7729 28.837 11.7815 28.9234 11.791C29.0098 11.8006 29.0961 11.8111 29.1823 11.8227C29.2684 11.8342 29.3545 11.8467 29.4404 11.8603C29.5263 11.8738 29.612 11.8883 29.6976 11.9038C29.7831 11.9193 29.8685 11.9358 29.9536 11.9533C30.0388 11.9707 30.1238 11.9892 30.2085 12.0086C30.2932 12.028 30.3778 12.0484 30.4621 12.0698C30.5463 12.0911 30.6303 12.1135 30.7141 12.1368C30.7979 12.1601 30.8814 12.1844 30.9646 12.2096C31.0478 12.2348 31.1307 12.261 31.2133 12.2881C31.2959 12.3153 31.3782 12.3433 31.4602 12.3724C31.5421 12.4014 31.6237 12.4313 31.705 12.4623C31.7862 12.4932 31.8671 12.525 31.9477 12.5578C32.0282 12.5906 32.1084 12.6243 32.1881 12.6589C32.2679 12.6935 32.3472 12.729 32.4262 12.7655C32.5051 12.8019 32.5836 12.8393 32.6617 12.8775C32.7398 12.9158 32.8174 12.9549 32.8946 12.995C32.9718 13.035 33.0485 13.0759 33.1247 13.1177C34.303 13.7514 35.7793 14.9552 36.5424 16.0403C35.711 16.7448 34.8284 17.3956 33.9645 18.0598C33.3976 18.4956 32.8448 18.9621 32.2616 19.3746C32.0059 19.0582 31.7483 18.7446 31.449 18.4677C30.5799 17.6637 29.3886 17.112 28.2091 16.9926C27.83 16.9542 27.3358 16.9281 26.9679 17.0186C26.9955 16.8008 27.0071 16.5734 26.9944 16.3541C26.9606 15.7688 26.6822 15.2349 26.2447 14.8479C25.7121 14.3767 25.1117 14.2833 24.4248 14.3265C24.2064 13.5276 23.7927 13.1563 23.1831 12.6447Z" fill="#0D3053"/>
<path d="M17.1038 23.192C18.0106 23.1667 18.9211 23.1846 19.8286 23.1813C20.274 23.1797 20.8205 23.2356 21.2516 23.1228C21.5899 23.0342 21.8226 22.8415 22.0675 22.606C22.069 22.6162 22.0707 22.6264 22.0721 22.6366C22.1353 23.0863 22.0969 23.5441 22.1643 23.9989C22.3883 25.5083 23.2484 26.8417 24.4506 27.7597C25.6526 28.6774 27.1244 28.9854 28.6115 28.7788C29.7488 28.6208 30.8335 27.9842 31.6384 27.1795C31.8854 26.9325 32.0949 26.6245 32.354 26.3958C32.8217 26.6717 33.2373 27.0635 33.6812 27.3792C34.2091 27.7546 34.7344 28.1369 35.2656 28.507C35.6807 28.7962 36.1096 29.061 36.4949 29.391C36.2984 29.7596 35.9318 30.1156 35.6368 30.4083C34.3524 31.683 32.823 32.7312 31.0805 33.2634C30.9939 33.2908 30.907 33.3171 30.8198 33.3423C30.7325 33.3675 30.645 33.3916 30.5571 33.4146C30.4693 33.4376 30.3812 33.4595 30.2928 33.4803C30.2044 33.5011 30.1158 33.5208 30.0269 33.5394C29.938 33.558 29.8489 33.5754 29.7596 33.5918C29.6703 33.6081 29.5807 33.6233 29.491 33.6375C29.4013 33.6516 29.3114 33.6645 29.2214 33.6764C29.1314 33.6883 29.0412 33.699 28.9509 33.7086C28.8606 33.7182 28.7702 33.7266 28.6797 33.7339C28.5892 33.7413 28.4986 33.7474 28.4079 33.7525C28.3173 33.7576 28.2266 33.7615 28.1358 33.7643C28.0451 33.7671 27.9543 33.7687 27.8635 33.7692C27.7726 33.7698 27.6818 33.7691 27.5911 33.7674C27.5003 33.7656 27.4095 33.7627 27.3188 33.7586C27.2281 33.7546 27.1374 33.7494 27.0468 33.7431C26.9562 33.7368 26.8658 33.7294 26.7753 33.7208C26.6849 33.7122 26.5947 33.7025 26.5045 33.6917C26.4144 33.6808 26.3244 33.6688 26.2345 33.6557C26.1446 33.6427 26.055 33.6284 25.9654 33.6131C25.8759 33.5978 25.7867 33.5813 25.6976 33.5637C25.6085 33.5461 25.5196 33.5275 25.431 33.5077C25.3424 33.4878 25.254 33.4669 25.1659 33.4449C25.0778 33.4229 24.99 33.3997 24.9025 33.3755C24.815 33.3513 24.7278 33.326 24.6409 33.2996C24.554 33.2732 24.4675 33.2457 24.3813 33.2171C24.2951 33.1885 24.2093 33.1589 24.1238 33.1282C24.0384 33.0975 23.9533 33.0657 23.8687 33.0328C23.784 32.9999 23.6998 32.966 23.616 32.9311C23.5322 32.8961 23.4488 32.8601 23.3659 32.823C23.283 32.786 23.2006 32.7479 23.1187 32.7088C23.0367 32.6696 22.9553 32.6295 22.8743 32.5883C22.7934 32.5472 22.7129 32.505 22.6331 32.4618C20.2445 31.1852 18.3764 28.8628 17.5947 26.2749C17.3022 25.3064 17.1013 24.2054 17.1038 23.192Z" fill="#477EB4"/>
<path d="M19.0368 23.832C19.1562 24.1055 19.2889 24.5616 19.215 24.8511C19.1864 24.963 19.1245 25.077 19.0183 25.1317C18.8834 25.2012 18.7231 25.191 18.5816 25.152C18.4958 25.0968 18.4207 25.0447 18.3654 24.9569C18.2917 24.8401 18.2703 24.7129 18.3054 24.5791C18.3973 24.2285 18.7475 24.0089 19.0368 23.832Z" fill="#FEFEFE"/>
<path d="M20.1777 25.4639C20.1815 25.4677 20.1862 25.4709 20.189 25.4755C20.3014 25.6638 20.4099 26.1936 20.3697 26.4128C20.3454 26.5454 20.2798 26.668 20.1641 26.7417C20.0203 26.8333 19.8683 26.8143 19.7101 26.78C19.6313 26.7271 19.5567 26.6738 19.5023 26.5946C19.4284 26.487 19.4015 26.3604 19.4302 26.2327C19.5093 25.88 19.8905 25.6399 20.1777 25.4639Z" fill="#FEFEFE"/>
<path d="M21.2271 27.1226L21.2501 27.1382C21.3521 27.408 21.488 27.7886 21.4431 28.0816C21.4228 28.2144 21.3578 28.3419 21.2443 28.4178C21.0944 28.5179 20.9289 28.499 20.7617 28.4644C20.6748 28.4098 20.5919 28.3384 20.5357 28.2517C20.464 28.1408 20.4442 28.0152 20.4775 27.8875C20.567 27.5448 20.9379 27.2918 21.2271 27.1226Z" fill="#FEFEFE"/>
<path d="M27.6855 29.3372C27.6968 29.3446 27.7089 29.351 27.7194 29.3596C27.8154 29.4378 27.913 29.613 27.9858 29.7184C28.3948 30.3097 28.845 31.0075 28.9463 31.7329C28.996 32.0892 28.9326 32.464 28.7071 32.7527C28.4492 33.0826 28.0932 33.1878 27.696 33.2303C27.3385 33.2338 26.9612 33.0974 26.7085 32.8394C26.4728 32.5989 26.3695 32.256 26.3735 31.9245C26.3834 31.1114 27.1226 29.8858 27.6855 29.3372Z" fill="#46BAF9"/>
</svg>
